HIERARCHY
ROOT Hips
{
	OFFSET	0	0	0
	CHANNELS 6  Xposition Yposition Zposition Xrotation Yrotation Zrotation
	JOINT Spine
	{
		OFFSET	0	7.09727	1.42491
		CHANNELS 3  Xrotation Yrotation Zrotation
		JOINT Spine1
		{
			OFFSET	0	12.1515	-2.16991
			CHANNELS 3  Xrotation Yrotation Zrotation
			JOINT Spine2
			{
				OFFSET	0	9.21125	0.987307
				CHANNELS 3  Xrotation Yrotation Zrotation
				JOINT Spine3
				{
					OFFSET	0	11.0231	3.27656
					CHANNELS 3  Xrotation Yrotation Zrotation
					JOINT Spine4
					{
						OFFSET	0	16.3177	-1.67083
						CHANNELS 3  Xrotation Yrotation Zrotation
						JOINT Neck
						{
							OFFSET	0	7.78996	-5.45731
							CHANNELS 3  Xrotation Yrotation Zrotation
							JOINT Head
							{
								OFFSET	0	9.35229	-2.79918
								CHANNELS 3  Xrotation Yrotation Zrotation
								End Site
								{
									OFFSET	0	19.5075	-0.943909
								}
							}
						}
					}
					JOINT LeftShoulder
					{
						OFFSET	-4.687	19.8329	-9.3523
						CHANNELS 3  Xrotation Yrotation Zrotation
						JOINT LeftArm
						{
							OFFSET	-10.2164	-2.79918	3.59122
							CHANNELS 3  Xrotation Yrotation Zrotation
							JOINT LeftForeArm
							{
								OFFSET	-30.9138	-1.41096	2.20659
								CHANNELS 3  Xrotation Yrotation Zrotation
								JOINT LeftHand
								{
									OFFSET	-25.9068	-1.7903	1.8492
									CHANNELS 3  Xrotation Yrotation Zrotation
									End Site
									{
										OFFSET	-9.45469	-0.653372	0.674821
									}
								}
							}
						}
					}
					JOINT RightShoulder
					{
						OFFSET	4.687	19.8329	-9.3523
						CHANNELS 3  Xrotation Yrotation Zrotation
						JOINT RightArm
						{
							OFFSET	10.2164	-2.79918	3.59122
							CHANNELS 3  Xrotation Yrotation Zrotation
							JOINT RightForeArm
							{
								OFFSET	30.9138	-1.41096	2.20659
								CHANNELS 3  Xrotation Yrotation Zrotation
								JOINT RightHand
								{
									OFFSET	25.9068	-1.7903	1.8492
									CHANNELS 3  Xrotation Yrotation Zrotation
									End Site
									{
										OFFSET	9.45469	-0.653372	0.674821
									}
								}
							}
						}
					}
				}
			}
		}
	}
	JOINT LeftUpLeg
	{
		OFFSET	-9.67573	-3.54864	-0.712453
		CHANNELS 3  Xrotation Yrotation Zrotation
		JOINT LeftLeg
		{
			OFFSET	-2.14499	-42.0303	-0.657025
			CHANNELS 3  Xrotation Yrotation Zrotation
			JOINT LeftFoot
			{
				OFFSET	-2.09953	-38.701	3.32829
				CHANNELS 3  Xrotation Yrotation Zrotation
				JOINT LeftToeBase
				{
					OFFSET	0	-4.7778	-12.6898
					CHANNELS 3  Xrotation Yrotation Zrotation
					End Site
					{
						OFFSET	0	-1.91111	-7.64447
					}
				}
			}
		}
	}
	JOINT RightUpLeg
	{
		OFFSET	9.67573	-3.54864	-0.712453
		CHANNELS 3  Xrotation Yrotation Zrotation
		JOINT RightLeg
		{
			OFFSET	2.14499	-42.0303	-0.657025
			CHANNELS 3  Xrotation Yrotation Zrotation
			JOINT RightFoot
			{
				OFFSET	2.09953	-38.701	3.32829
				CHANNELS 3  Xrotation Yrotation Zrotation
				JOINT RightToeBase
				{
					OFFSET	0	-4.7778	-12.6898
					CHANNELS 3  Xrotation Yrotation Zrotation
					End Site
					{
						OFFSET	0	-1.91111	-7.64447
					}
				}
			}
		}
	}
}
MOTION
Frames: 15
Frame Time: 0.020408
 0 -10.1591 2.86036 -0 0 -0 -0 0 -0 -0 0 -0 -0 0 -0 -0 0 -0 -0 0 -0 -0 0 -0 -0 0 -0 -0 0 -0 -0 0 -0 -0 0 -0 -0 0 -0 -0 0 -0 -0 0 -0 -0 0 -0 -0 0 -0 -0 0 -0 -0 0 -0 -0 0 -0 -0 0 -0 -0 0 -0 -0 0 -0 -0 0 -0 -0 0 -0
 -144.874 87.633 171.062 56.886 -76.8338 54.3345 179.999 179.855 -179.677 174.14 179.711 -179.461 173.567 179.132 -179.461 174.394 179.855 -179.677 2.01417 0.00378556 0.107641 11.4635 4.85944 -8.30361 3.58263 18.3701 -1.82388 177.652 -169.976 175.126 173.075 -157.927 -117.794 169.84 105.279 11.6959 -0 -9.19805 -10.9551 178.663 160.68 -177.124 5.30676 -18.2375 -67.1585 13.7794 51.4619 -9.23617 -0 -6.69078 -24.3002 174.67 -175.322 -166.767 153.753 161.644 -179.423 20.8262 0.36496 -5.26257 3.87675 0 0 10.0014 17.8438 9.61151 142.948 -156.244 179.005 3.56661 -0.1938 -15.855 2.90788 0 0
 -144.708 87.5406 170.962 56.1092 -76.7345 53.4365 179.999 179.857 -179.64 174.119 179.713 -179.399 173.538 179.139 -179.399 174.356 179.857 -179.64 2.06568 0.00433128 0.120085 11.6078 4.5795 -8.103 3.62136 17.7026 -1.80093 177.631 -170.056 175.085 172.906 -157.702 -117.786 170.182 104.911 11.5016 -0 -8.95707 -11.4814 178.669 160.242 -177.134 5.22497 -18.5343 -67.102 14.0449 52.1289 -9.52207 -0 -6.78403 -23.9938 174.918 -175.07 -166.442 153.348 161.556 -179.581 21.0184 0.398842 -5.29771 3.73291 0 0 10.2957 18.0726 9.2719 142.42 -154.926 179.482 3.49835 -0.0783392 -16.3138 2.92099 0 0
 -144.621 87.4579 170.814 55.9841 -76.6358 53.0361 179.999 179.894 -179.579 174.041 179.787 -179.298 173.447 179.362 -179.297 174.261 179.894 -179.579 2.13692 0.00523871 0.140397 11.8768 4.37243 -7.82698 3.69594 17.0497 -1.75811 177.674 -170.003 175.173 172.916 -157.832 -117.841 170.376 104.426 11.3321 -0 -8.72208 -11.8846 178.722 159.78 -177.246 5.13724 -18.7594 -67.1759 14.1338 52.4833 -9.62568 -0 -6.84571 -23.729 175.105 -174.723 -165.957 153.007 161.417 -179.668 21.1287 0.465138 -5.36603 3.61697 0 0 11.0108 18.5514 8.78519 141.406 -153.954 179.62 3.28694 -0.0831401 -15.775 2.93708 0 0
 -144.702 87.505 170.775 58.2991 -76.8144 55.1973 179.999 179.893 -179.521 173.928 179.787 -179.201 173.317 179.36 -179.201 174.137 179.893 -179.521 2.21462 0.00617603 0.159703 12.2016 4.22055 -7.57852 3.78859 16.5173 -1.72065 177.686 -169.939 175.196 172.966 -158.207 -117.908 170.762 104 10.8849 -0 -8.45536 -12.0573 178.813 159.493 -177.441 4.95522 -18.9714 -67.3321 14.3225 53.0589 -9.81334 -0 -6.84427 -23.3713 175.143 -174.409 -165.625 153.073 161.171 -179.585 20.9401 0.554683 -5.42034 3.51349 0 0 13.4353 18.4112 7.19264 140.137 -152.998 179.338 2.60301 -0.798529 -15.1323 2.97098 0 0
 -144.558 87.3892 170.798 59.5819 -76.9495 56.3444 179.999 179.905 -179.457 173.917 179.811 -179.095 173.289 179.433 -179.095 174.081 179.905 -179.457 2.3227 0.00733816 0.180916 12.5307 4.18713 -7.2459 3.87916 16.0376 -1.64931 177.64 -170.382 175.111 173.364 -158.955 -117.643 171.277 104.002 10.2137 -0 -8.06851 -12.0714 178.758 159.409 -177.319 4.16785 -19.3067 -68.0003 14.594 53.6418 -10.1045 -0 -6.8327 -23.0355 175.403 -174.12 -165.385 152.496 160.884 -179.473 21.235 0.625587 -5.32063 3.42108 0 0 13.6122 19.1586 6.71377 139.584 -152.728 179.504 3.00952 -0.792608 -15.2319 3.02681 0 0
 -144.367 87.3182 170.905 60.1828 -76.802 56.8388 179.999 179.943 -179.412 173.822 179.886 -179.02 173.169 179.659 -179.02 173.936 179.943 -179.412 2.48106 0.00848505 0.195824 13.0879 4.18379 -6.91769 4.04058 15.6164 -1.58803 177.518 -170.753 174.868 173.581 -159.553 -117.533 171.939 104.177 9.4792 -0 -7.74952 -12.1811 178.748 159.287 -177.298 3.55549 -19.7636 -68.5492 14.6018 54.0311 -10.1092 -0 -6.95434 -22.536 175.353 -173.85 -165.331 152.147 160.567 -179.368 21.4341 0.608321 -5.11199 3.3383 0 0 13.8277 19.8189 5.8907 138.907 -152.65 179.667 3.32444 -0.690072 -14.7232 3.0668 0 0
 -144.157 87.2621 171.078 61.4735 -76.9615 57.9528 179.999 179.905 -179.328 173.809 179.809 -178.88 173.134 179.427 -178.88 173.872 179.905 -179.328 2.60785 0.0101938 0.223806 13.4729 4.20407 -6.60939 4.14916 15.2376 -1.51957 177.354 -170.831 174.532 173.598 -159.961 -117.492 172.957 104.511 8.46682 -0 -7.49109 -12.2956 178.946 159.31 -177.725 2.75503 -20.7014 -69.1234 13.963 53.6408 -9.49248 -0 -7.31588 -21.6327 175.378 -173.622 -165.272 151.971 160.222 -179.195 21.5767 0.539106 -4.85623 3.26453 0 0 14.4689 19.7346 4.88341 138.616 -152.426 179.477 3.96157 -0.864938 -14.3965 3.11574 0 0
 -143.71 87.2094 171.268 59.9531 -76.6164 56.3616 179.999 179.916 -179.296 173.757 179.831 -178.827 173.052 179.494 -178.827 173.744 179.916 -179.296 2.80919 0.0114998 0.23436 14.1601 4.72381 -6.18455 4.34697 15.4017 -1.394 177.148 -170.885 174.107 173.449 -160.176 -117.207 174.399 105.131 7.09472 -0 -7.141 -12.4441 179.106 159.083 -178.07 2.06974 -22.0724 -70.0375 12.7563 52.7449 -8.50669 -0 -7.90167 -19.9764 174.995 -173.415 -165.315 152.042 159.622 -179.45 21.8056 0.359934 -4.23462 3.20043 0 0 14.4557 20.2985 4.22493 137.901 -152.374 179.47 4.51993 -0.766426 -14.0229 3.14851 0 0
 -143.348 87.2376 171.566 58.1387 -76.3204 54.5382 179.999 179.933 -179.249 173.74 179.866 -178.749 173.013 179.597 -178.749 173.665 179.933 -179.249 2.96058 0.0129275 0.24996 14.6452 5.02955 -5.98159 4.49004 15.5516 -1.33707 177.001 -171.004 173.805 173.621 -160.542 -116.651 175.794 105.356 5.7464 -0 -6.74556 -12.6299 179.311 158.846 -178.512 1.18641 -23.4482 -70.9547 11.3499 51.6862 -7.2832 -0 -8.65362 -17.9116 174.656 -173.232 -165.67 152.215 159.193 -179.481 21.8836 0.174564 -3.55042 3.14296 0 0 14.3914 20.3451 3.54843 138.029 -153.671 179.773 4.96305 -0.718675 -13.3189 3.17025 0 0
 -143.044 87.3542 171.885 55.2903 -76.0601 51.5803 179.999 179.954 -179.175 173.746 179.909 -178.625 173.002 179.726 -178.625 173.613 179.954 -179.175 3.09324 0.014839 0.274592 14.9788 4.61171 -6.2647 4.60277 15.3826 -1.46742 176.815 -171.438 173.435 173.905 -161.225 -116.079 176.992 105.379 4.52109 -0 -6.25936 -12.8372 179.495 158.428 -178.908 0.0784792 -24.7602 -71.9455 9.74982 50.1543 -5.83787 -0 -9.67722 -15.702 174.421 -173.182 -166.065 152.697 159.376 -179.486 21.7309 0.0671623 -3.16089 3.09351 0 0 14.4745 20.6968 2.73036 138.656 -156.203 -179.926 5.27786 -0.628089 -12.3997 3.18993 0 0
 -142.721 87.4996 172.212 50.4109 -75.2635 46.6247 179.999 179.965 -179.132 173.711 179.93 -178.553 172.981 179.789 -178.553 173.63 179.965 -179.132 2.9861 0.0150744 0.288976 14.6744 4.33894 -6.48875 4.5166 15.3137 -1.53732 176.72 -171.351 173.235 174.321 -161.202 -115.696 178.196 105.253 3.35063 -0 -5.80598 -13.1365 179.666 157.7 -179.277 178.962 -154.221 107.158 8.33477 48.1035 -4.53972 -0 -10.9402 -13.7825 174.22 -173.016 -166.517 153.124 159.892 -179.703 21.4986 -0.143764 -2.77264 3.05118 0 0 14.2913 21.2222 2.054 139.937 -159.206 -179.747 4.90795 -0.43749 -11.6078 3.22123 0 0
 -142.427 87.6344 172.609 46.7946 -74.4304 42.7314 180 179.971 -179.028 173.674 179.941 -178.381 172.963 179.824 -178.381 173.661 179.971 -179.028 2.84317 0.0160642 0.323459 14.3034 4.40052 -6.53043 4.40328 15.4432 -1.52551 176.537 -170.683 172.828 174.263 -160.835 -115.793 179.543 104.603 2.24175 -0 -5.55912 -13.4075 179.883 155.919 -179.746 177.718 -153.729 106.464 6.93005 45.4577 -3.2499 -0 -12.4259 -11.8755 173.968 -172.794 -166.917 153.468 160.27 -179.585 21.2637 -0.275806 -2.47462 3.01559 0 0 14.6952 21.9186 0.9563 142.25 -163.811 179.748 3.05579 0.0867388 -11.2048 3.26791 0 0
 -142.169 87.7296 172.888 45.1432 -73.8738 40.9906 180 179.978 -178.959 173.65 179.955 -178.265 172.941 179.865 -178.265 173.649 179.978 -178.959 2.82655 0.0171127 0.346598 14.2367 4.02514 -6.79597 4.39235 15.2909 -1.62694 176.088 -170.287 171.871 174.665 -160.575 -115.467 1.67544 75.759 -179.836 -0 -5.67437 -13.4184 179.904 153.521 -179.792 176.804 -154.041 106.247 5.92118 43.3815 -2.32982 -0 -13.9193 -10.1243 173.657 -172.728 -167.266 153.762 160.471 -179.628 21.1172 -0.315615 -2.18398 2.98417 0 0 13.9265 22.5487 0.731611 145.324 -168.235 179.777 3.78406 0.0526191 -10.917 3.3871 0 0
 -141.708 87.7793 173.15 44.9742 -74.0116 40.6839 180 179.983 -178.879 173.649 179.967 -178.132 172.946 179.9 -178.132 173.664 179.983 -178.879 2.78968 0.0181808 0.373106 14.0888 3.64873 -7.05072 4.3562 15.1147 -1.72094 176.014 -170.768 171.74 175.008 -160.986 -114.723 4.4216 76.2568 177.477 -0 -6.04919 -13.1664 0.114529 28.4859 -0.248716 176.183 -154.43 105.935 5.18261 41.6495 -1.64683 -0 -15.3991 -8.60943 173.263 -173.244 -167.539 154.138 160.654 -179.616 21.1065 -0.343306 -1.92252 2.95889 0 0 13.2909 22.9715 0.738172 147.713 -171.606 179.873 4.49683 -0.0313632 -10.3158 3.49295 0 0
